<?xml version="1.0" standalone="no"?>
<!DOCTYPE svg PUBLIC "-//W3C//DTD SVG 20010904//EN"
 "http://www.w3.org/TR/2001/REC-SVG-20010904/DTD/svg10.dtd">
<svg version="1.0" xmlns="http://www.w3.org/2000/svg"
 width="689.000000pt" height="489.000000pt" viewBox="0 0 689.000000 489.000000"
 preserveAspectRatio="xMidYMid meet">
<metadata>
Created by potrace 1.15, written by Peter Selinger 2001-2017
</metadata>
<g transform="translate(0.000000,489.000000) scale(0.100000,-0.100000)"
fill="#000000" stroke="none">
<path d="M4091 4469 c-30 -5 -59 -13 -65 -18 -6 -4 -45 -14 -86 -21 -41 -7
-85 -19 -97 -26 -12 -8 -29 -14 -36 -14 -8 0 -40 -19 -71 -42 -113 -86 -178
-133 -210 -153 -19 -11 -65 -41 -104 -67 -38 -27 -74 -48 -79 -48 -6 0 -18 -9
-28 -20 -10 -11 -25 -20 -34 -20 -9 0 -27 -7 -41 -15 -14 -8 -38 -22 -55 -30
-68 -36 -81 -46 -126 -94 -26 -28 -51 -51 -54 -51 -4 0 -42 -27 -84 -61 -101
-81 -220 -217 -276 -314 -15 -27 -39 -63 -52 -78 -12 -16 -23 -32 -23 -37 0
-14 -112 -181 -180 -268 -62 -78 -269 -278 -302 -291 -20 -8 -29 -7 -38 5 -9
9 -34 14 -79 14 -36 1 -84 7 -106 15 -24 9 -78 15 -135 15 -52 0 -162 5 -245
11 -200 15 -1419 -1 -1437 -19 -7 -7 -20 -12 -30 -12 -14 0 -18 -8 -18 -40 0
-39 1 -40 33 -40 18 0 38 5 45 12 17 17 1199 33 1382 19 75 -6 181 -11 235
-11 62 0 115 -6 140 -15 22 -8 56 -14 75 -15 l35 0 -70 -64 c-113 -102 -191
-169 -235 -201 -22 -16 -53 -40 -68 -51 -15 -12 -52 -34 -82 -51 -30 -16 -73
-41 -95 -56 -22 -15 -44 -27 -49 -27 -10 0 -98 -40 -156 -70 -19 -11 -53 -28
-76 -39 -22 -11 -58 -41 -79 -67 -21 -25 -62 -70 -92 -99 -29 -29 -53 -61 -53
-69 0 -9 -18 -36 -40 -60 -22 -24 -40 -48 -40 -55 0 -6 -18 -31 -40 -55 -22
-24 -40 -47 -40 -51 0 -4 -16 -25 -35 -46 -19 -22 -35 -45 -35 -53 0 -7 -7
-19 -16 -26 -33 -28 -46 -81 -41 -168 3 -45 10 -89 17 -97 16 -19 54 -19 70
-1 6 8 21 16 33 18 12 2 28 15 34 29 19 38 100 126 130 141 27 13 72 81 73
109 0 16 50 69 65 69 5 0 18 8 29 18 12 10 37 25 56 32 19 7 42 19 51 26 8 8
47 18 86 24 39 5 93 21 121 35 27 14 59 25 69 25 11 0 34 11 53 25 19 14 40
25 48 25 8 0 31 9 51 19 43 24 139 51 176 51 15 0 42 8 59 19 18 11 86 27 163
40 72 11 139 24 149 28 15 6 16 -1 10 -73 -10 -118 -26 -615 -26 -812 0 -160
2 -176 21 -203 11 -16 25 -29 30 -29 6 0 25 -10 42 -23 25 -18 56 -26 137 -36
58 -7 110 -17 117 -23 8 -6 132 -10 330 -11 279 -2 321 0 343 14 14 9 49 19
79 23 30 3 59 10 65 16 5 5 19 10 30 10 12 0 30 7 40 15 11 8 27 15 36 15 9 0
25 9 34 19 16 17 18 36 15 145 l-4 126 80 0 c50 0 86 5 93 12 17 17 14 111 -6
189 -21 80 -56 118 -150 166 -62 31 -72 33 -171 33 -58 0 -162 5 -230 12
l-124 12 6 94 c4 52 11 100 15 106 5 6 12 43 16 81 12 123 37 239 54 253 9 6
34 12 56 12 65 0 170 21 191 39 35 28 63 40 107 47 24 4 49 12 57 18 8 6 29
18 47 27 38 17 179 168 190 202 3 12 20 43 37 70 28 43 34 47 70 47 21 0 62 7
90 15 29 8 146 24 261 35 115 12 217 25 227 30 21 12 1086 36 1443 33 142 -1
263 -7 270 -12 6 -5 36 -11 66 -14 97 -10 284 -45 330 -62 25 -9 68 -21 95
-25 76 -13 109 -22 123 -33 7 -5 58 -12 112 -15 l100 -5 0 40 0 40 -85 5 c-47
3 -91 10 -98 16 -13 10 -47 19 -122 32 -27 4 -70 16 -95 25 -46 17 -233 52
-330 62 -30 3 -60 9 -67 15 -7 5 -133 10 -300 11 -391 3 -1450 -21 -1472 -33
-10 -5 -114 -19 -231 -30 -117 -12 -232 -27 -255 -35 l-42 -12 26 41 c46 72
51 81 60 101 5 12 16 27 25 35 10 7 26 34 38 59 11 25 26 53 32 61 14 17 36
169 36 248 0 28 5 54 10 57 6 3 10 23 10 44 0 54 17 95 43 106 19 9 23 20 29
95 12 131 9 125 80 139 35 7 97 16 138 21 166 19 285 42 305 60 11 9 42 20 69
24 27 3 54 10 60 15 14 11 62 20 147 29 97 10 99 14 99 147 0 85 -3 115 -14
124 -9 7 -17 42 -21 89 -9 89 -22 119 -67 156 -18 14 -45 39 -60 54 l-28 27
-332 2 c-183 0 -357 -3 -387 -8z"/>
</g>
</svg>
